<svg width="25" height="18" viewBox="0 0 25 18" fill="none" xmlns="http://www.w3.org/2000/svg">
<g clip-path="url(#clip0_22_170)">
<path d="M24.9672 1.48499H0.032959V0.0449854H24.9672V1.48499Z" fill="#BF0A30"/>
<path d="M24.9672 2.92499H0.032959V1.48499H24.9672V2.92499Z" fill="white"/>
<path d="M24.9672 4.36499H0.032959V2.92499H24.9672V4.36499Z" fill="#BF0A30"/>
<path d="M24.9672 5.80499H0.032959V4.36499H24.9672V5.80499Z" fill="white"/>
<path d="M24.9672 7.155H0.032959V5.805H24.9672V7.155Z" fill="#BF0A30"/>
<path d="M24.9672 8.50497H0.032959V7.15497H24.9672V8.50497Z" fill="white"/>
<path d="M24.9672 9.85498H0.032959V8.50498H24.9672V9.85498Z" fill="#BF0A30"/>
<path d="M24.9672 11.205H0.032959V9.85499H24.9672V11.205Z" fill="white"/>
<path d="M24.9672 12.555H0.032959V11.205H24.9672V12.555Z" fill="#BF0A30"/>
<path d="M24.9672 13.905H0.032959V12.555H24.9672V13.905Z" fill="white"/>
<path d="M24.9672 15.255H0.032959V13.905H24.9672V15.255Z" fill="#BF0A30"/>
<path d="M24.9672 16.605H0.032959V15.255H24.9672V16.605Z" fill="white"/>
<path d="M24.9672 17.955H0.032959V16.605H24.9672V17.955Z" fill="#BF0A30"/>
<path d="M10.033 17.955H0.032959V8.50499H10.033V17.955Z" fill="#002868"/>
<path fill-rule="evenodd" clip-rule="evenodd" d="M0.450488 9.6198L0.740412 9.66261L0.851069 10.0487L0.969091 9.6671L1.25972 9.63571L1.04274 9.35707L1.11171 8.95157L0.859585 9.16095L0.611575 8.94173L0.672734 9.34978L0.450488 9.6198Z" fill="white"/>
<path fill-rule="evenodd" clip-rule="evenodd" d="M2.09526 9.6198L2.38519 9.66261L2.49584 10.0487L2.61387 9.6671L2.9045 9.63571L2.68752 9.35707L2.75648 8.95157L2.50436 9.16095L2.25635 8.94173L2.31751 9.34978L2.09526 9.6198Z" fill="white"/>
<path fill-rule="evenodd" clip-rule="evenodd" d="M3.80571 9.6198L4.09564 9.66261L4.20629 10.0487L4.32432 9.6671L4.61495 9.63571L4.39797 9.35707L4.46693 8.95157L4.21481 9.16095L3.9668 8.94173L4.02796 9.34978L3.80571 9.6198Z" fill="white"/>
<path fill-rule="evenodd" clip-rule="evenodd" d="M5.45049 9.6198L5.74041 9.66261L5.85107 10.0487L5.96909 9.6671L6.25972 9.63571L6.04274 9.35707L6.11171 8.95157L5.85958 9.16095L5.61158 8.94173L5.67273 9.34978L5.45049 9.6198Z" fill="white"/>
<path fill-rule="evenodd" clip-rule="evenodd" d="M7.09526 9.6198L7.38519 9.66261L7.49584 10.0487L7.61387 9.6671L7.9045 9.63571L7.68752 9.35707L7.75648 8.95157L7.50436 9.16095L7.25635 8.94173L7.31751 9.34978L7.09526 9.6198Z" fill="white"/>
<path fill-rule="evenodd" clip-rule="evenodd" d="M8.80571 9.6198L9.09564 9.66261L9.20629 10.0487L9.32432 9.6671L9.61495 9.63571L9.39797 9.35707L9.46693 8.95157L9.21481 9.16095L8.9668 8.94173L9.02796 9.34978L8.80571 9.6198Z" fill="white"/>
<path fill-rule="evenodd" clip-rule="evenodd" d="M1.30571 10.5198L1.59564 10.5626L1.70629 10.9487L1.82432 10.5671L2.11495 10.5357L1.89797 10.2571L1.96693 9.85156L1.71481 10.0609L1.4668 9.84172L1.52796 10.2498L1.30571 10.5198Z" fill="white"/>
<path fill-rule="evenodd" clip-rule="evenodd" d="M0.450488 11.5098L0.740412 11.5526L0.851069 11.9387L0.969091 11.5571L1.25972 11.5257L1.04274 11.2471L1.11171 10.8416L0.859585 11.0509L0.611575 10.8317L0.672734 11.2398L0.450488 11.5098Z" fill="white"/>
<path fill-rule="evenodd" clip-rule="evenodd" d="M1.30571 12.4097L1.59564 12.4525L1.70629 12.8386L1.82432 12.457L2.11495 12.4256L1.89797 12.147L1.96693 11.7415L1.71481 11.9509L1.4668 11.7316L1.52796 12.1397L1.30571 12.4097Z" fill="white"/>
<path fill-rule="evenodd" clip-rule="evenodd" d="M0.450488 13.3997L0.740412 13.4425L0.851069 13.8286L0.969091 13.447L1.25972 13.4156L1.04274 13.137L1.11171 12.7315L0.859585 12.9409L0.611575 12.7216L0.672734 13.1297L0.450488 13.3997Z" fill="white"/>
<path fill-rule="evenodd" clip-rule="evenodd" d="M1.30571 14.2997L1.59564 14.3425L1.70629 14.7286L1.82432 14.347L2.11495 14.3156L1.89797 14.037L1.96693 13.6315L1.71481 13.8408L1.4668 13.6216L1.52796 14.0297L1.30571 14.2997Z" fill="white"/>
<path fill-rule="evenodd" clip-rule="evenodd" d="M0.450488 15.2897L0.740412 15.3325L0.851069 15.7186L0.969091 15.337L1.25972 15.3056L1.04274 15.027L1.11171 14.6215L0.859585 14.8308L0.611575 14.6116L0.672734 15.0197L0.450488 15.2897Z" fill="white"/>
<path fill-rule="evenodd" clip-rule="evenodd" d="M1.30571 16.1897L1.59564 16.2325L1.70629 16.6186L1.82432 16.237L2.11495 16.2056L1.89797 15.927L1.96693 15.5215L1.71481 15.7309L1.4668 15.5116L1.52796 15.9197L1.30571 16.1897Z" fill="white"/>
<path fill-rule="evenodd" clip-rule="evenodd" d="M0.450488 17.1797L0.740412 17.2225L0.851069 17.6086L0.969091 17.227L1.25972 17.1956L1.04274 16.917L1.11171 16.5115L0.859585 16.7209L0.611575 16.5016L0.672734 16.9097L0.450488 17.1797Z" fill="white"/>
<path fill-rule="evenodd" clip-rule="evenodd" d="M2.95049 10.5198L3.24041 10.5626L3.35107 10.9487L3.46909 10.5671L3.75972 10.5357L3.54274 10.2571L3.61171 9.85156L3.35958 10.0609L3.11158 9.84172L3.17273 10.2498L2.95049 10.5198Z" fill="white"/>
<path fill-rule="evenodd" clip-rule="evenodd" d="M2.09526 11.5098L2.38519 11.5526L2.49584 11.9387L2.61387 11.5571L2.9045 11.5257L2.68752 11.2471L2.75648 10.8416L2.50436 11.0509L2.25635 10.8317L2.31751 11.2398L2.09526 11.5098Z" fill="white"/>
<path fill-rule="evenodd" clip-rule="evenodd" d="M2.95049 12.4097L3.24041 12.4525L3.35107 12.8386L3.46909 12.457L3.75972 12.4256L3.54274 12.147L3.61171 11.7415L3.35958 11.9509L3.11158 11.7316L3.17273 12.1397L2.95049 12.4097Z" fill="white"/>
<path fill-rule="evenodd" clip-rule="evenodd" d="M2.09526 13.3997L2.38519 13.4425L2.49584 13.8286L2.61387 13.447L2.9045 13.4156L2.68752 13.137L2.75648 12.7315L2.50436 12.9409L2.25635 12.7216L2.31751 13.1297L2.09526 13.3997Z" fill="white"/>
<path fill-rule="evenodd" clip-rule="evenodd" d="M2.95049 14.2997L3.24041 14.3425L3.35107 14.7286L3.46909 14.347L3.75972 14.3156L3.54274 14.037L3.61171 13.6315L3.35958 13.8408L3.11158 13.6216L3.17273 14.0297L2.95049 14.2997Z" fill="white"/>
<path fill-rule="evenodd" clip-rule="evenodd" d="M2.09526 15.2897L2.38519 15.3325L2.49584 15.7186L2.61387 15.337L2.9045 15.3056L2.68752 15.027L2.75648 14.6215L2.50436 14.8308L2.25635 14.6116L2.31751 15.0197L2.09526 15.2897Z" fill="white"/>
<path fill-rule="evenodd" clip-rule="evenodd" d="M2.95049 16.1897L3.24041 16.2325L3.35107 16.6186L3.46909 16.237L3.75972 16.2056L3.54274 15.927L3.61171 15.5215L3.35958 15.7309L3.11158 15.5116L3.17273 15.9197L2.95049 16.1897Z" fill="white"/>
<path fill-rule="evenodd" clip-rule="evenodd" d="M2.09526 17.1797L2.38519 17.2225L2.49584 17.6086L2.61387 17.227L2.9045 17.1956L2.68752 16.917L2.75648 16.5115L2.50436 16.7209L2.25635 16.5016L2.31751 16.9097L2.09526 17.1797Z" fill="white"/>
<path fill-rule="evenodd" clip-rule="evenodd" d="M4.59526 10.5198L4.88519 10.5626L4.99584 10.9487L5.11387 10.5671L5.4045 10.5357L5.18752 10.2571L5.25648 9.85156L5.00436 10.0609L4.75635 9.84172L4.81751 10.2498L4.59526 10.5198Z" fill="white"/>
<path fill-rule="evenodd" clip-rule="evenodd" d="M3.80571 11.5098L4.09564 11.5526L4.20629 11.9387L4.32432 11.5571L4.61495 11.5257L4.39797 11.2471L4.46693 10.8416L4.21481 11.0509L3.9668 10.8317L4.02796 11.2398L3.80571 11.5098Z" fill="white"/>
<path fill-rule="evenodd" clip-rule="evenodd" d="M7.09526 11.5098L7.38519 11.5526L7.49584 11.9387L7.61387 11.5571L7.9045 11.5257L7.68752 11.2471L7.75648 10.8416L7.50436 11.0509L7.25635 10.8317L7.31751 11.2398L7.09526 11.5098Z" fill="white"/>
<path fill-rule="evenodd" clip-rule="evenodd" d="M5.45049 11.5098L5.74041 11.5526L5.85107 11.9387L5.96909 11.5571L6.25972 11.5257L6.04274 11.2471L6.11171 10.8416L5.85958 11.0509L5.61158 10.8317L5.67273 11.2398L5.45049 11.5098Z" fill="white"/>
<path fill-rule="evenodd" clip-rule="evenodd" d="M7.95049 10.5198L8.24041 10.5626L8.35107 10.9487L8.46909 10.5671L8.75972 10.5357L8.54274 10.2571L8.61171 9.85156L8.35958 10.0609L8.11158 9.84172L8.17273 10.2498L7.95049 10.5198Z" fill="white"/>
<path fill-rule="evenodd" clip-rule="evenodd" d="M6.30571 10.5198L6.59564 10.5626L6.70629 10.9487L6.82432 10.5671L7.11495 10.5357L6.89797 10.2571L6.96693 9.85156L6.71481 10.0609L6.4668 9.84172L6.52796 10.2498L6.30571 10.5198Z" fill="white"/>
<path fill-rule="evenodd" clip-rule="evenodd" d="M3.80571 17.1797L4.09564 17.2225L4.20629 17.6086L4.32432 17.227L4.61495 17.1956L4.39797 16.917L4.46693 16.5115L4.21481 16.7209L3.9668 16.5016L4.02796 16.9097L3.80571 17.1797Z" fill="white"/>
<path fill-rule="evenodd" clip-rule="evenodd" d="M4.59526 16.1897L4.88519 16.2325L4.99584 16.6186L5.11387 16.237L5.4045 16.2056L5.18752 15.927L5.25648 15.5215L5.00436 15.7309L4.75635 15.5116L4.81751 15.9197L4.59526 16.1897Z" fill="white"/>
<path fill-rule="evenodd" clip-rule="evenodd" d="M3.80571 15.2897L4.09564 15.3325L4.20629 15.7186L4.32432 15.337L4.61495 15.3056L4.39797 15.027L4.46693 14.6215L4.21481 14.8308L3.9668 14.6116L4.02796 15.0197L3.80571 15.2897Z" fill="white"/>
<path fill-rule="evenodd" clip-rule="evenodd" d="M4.59526 14.2997L4.88519 14.3425L4.99584 14.7286L5.11387 14.347L5.4045 14.3156L5.18752 14.037L5.25648 13.6315L5.00436 13.8408L4.75635 13.6216L4.81751 14.0297L4.59526 14.2997Z" fill="white"/>
<path fill-rule="evenodd" clip-rule="evenodd" d="M3.80571 13.3997L4.09564 13.4425L4.20629 13.8286L4.32432 13.447L4.61495 13.4156L4.39797 13.137L4.46693 12.7315L4.21481 12.9409L3.9668 12.7216L4.02796 13.1297L3.80571 13.3997Z" fill="white"/>
<path fill-rule="evenodd" clip-rule="evenodd" d="M4.59526 12.4097L4.88519 12.4525L4.99584 12.8386L5.11387 12.457L5.4045 12.4256L5.18752 12.147L5.25648 11.7415L5.00436 11.9509L4.75635 11.7316L4.81751 12.1397L4.59526 12.4097Z" fill="white"/>
<path fill-rule="evenodd" clip-rule="evenodd" d="M8.80571 11.5098L9.09564 11.5526L9.20629 11.9387L9.32432 11.5571L9.61495 11.5257L9.39797 11.2471L9.46693 10.8416L9.21481 11.0509L8.9668 10.8317L9.02796 11.2398L8.80571 11.5098Z" fill="white"/>
<path fill-rule="evenodd" clip-rule="evenodd" d="M5.45049 13.3997L5.74041 13.4425L5.85107 13.8286L5.96909 13.447L6.25972 13.4156L6.04274 13.137L6.11171 12.7315L5.85958 12.9409L5.61158 12.7216L5.67273 13.1297L5.45049 13.3997Z" fill="white"/>
<path fill-rule="evenodd" clip-rule="evenodd" d="M5.45049 17.1797L5.74041 17.2225L5.85107 17.6086L5.96909 17.227L6.25972 17.1956L6.04274 16.917L6.11171 16.5115L5.85958 16.7209L5.61158 16.5016L5.67273 16.9097L5.45049 17.1797Z" fill="white"/>
<path fill-rule="evenodd" clip-rule="evenodd" d="M5.45049 15.2897L5.74041 15.3325L5.85107 15.7186L5.96909 15.337L6.25972 15.3056L6.04274 15.027L6.11171 14.6215L5.85958 14.8308L5.61158 14.6116L5.67273 15.0197L5.45049 15.2897Z" fill="white"/>
<path fill-rule="evenodd" clip-rule="evenodd" d="M7.95049 12.4097L8.24041 12.4525L8.35107 12.8386L8.46909 12.457L8.75972 12.4256L8.54274 12.147L8.61171 11.7415L8.35958 11.9509L8.11158 11.7316L8.17273 12.1397L7.95049 12.4097Z" fill="white"/>
<path fill-rule="evenodd" clip-rule="evenodd" d="M6.30571 12.4097L6.59564 12.4525L6.70629 12.8386L6.82432 12.457L7.11495 12.4256L6.89797 12.147L6.96693 11.7415L6.71481 11.9509L6.4668 11.7316L6.52796 12.1397L6.30571 12.4097Z" fill="white"/>
<path fill-rule="evenodd" clip-rule="evenodd" d="M6.30571 16.1897L6.59564 16.2325L6.70629 16.6186L6.82432 16.237L7.11495 16.2056L6.89797 15.927L6.96693 15.5215L6.71481 15.7309L6.4668 15.5116L6.52796 15.9197L6.30571 16.1897Z" fill="white"/>
<path fill-rule="evenodd" clip-rule="evenodd" d="M6.30571 14.2997L6.59564 14.3425L6.70629 14.7286L6.82432 14.347L7.11495 14.3156L6.89797 14.037L6.96693 13.6315L6.71481 13.8408L6.4668 13.6216L6.52796 14.0297L6.30571 14.2997Z" fill="white"/>
<path fill-rule="evenodd" clip-rule="evenodd" d="M8.80571 13.3997L9.09564 13.4425L9.20629 13.8286L9.32432 13.447L9.61495 13.4156L9.39797 13.137L9.46693 12.7315L9.21481 12.9409L8.9668 12.7216L9.02796 13.1297L8.80571 13.3997Z" fill="white"/>
<path fill-rule="evenodd" clip-rule="evenodd" d="M7.09526 13.3997L7.38519 13.4425L7.49584 13.8286L7.61387 13.447L7.9045 13.4156L7.68752 13.137L7.75648 12.7315L7.50436 12.9409L7.25635 12.7216L7.31751 13.1297L7.09526 13.3997Z" fill="white"/>
<path fill-rule="evenodd" clip-rule="evenodd" d="M7.09526 17.1797L7.38519 17.2225L7.49584 17.6086L7.61387 17.227L7.9045 17.1956L7.68752 16.917L7.75648 16.5115L7.50436 16.7209L7.25635 16.5016L7.31751 16.9097L7.09526 17.1797Z" fill="white"/>
<path fill-rule="evenodd" clip-rule="evenodd" d="M7.09526 15.2897L7.38519 15.3325L7.49584 15.7186L7.61387 15.337L7.9045 15.3056L7.68752 15.027L7.75648 14.6215L7.50436 14.8308L7.25635 14.6116L7.31751 15.0197L7.09526 15.2897Z" fill="white"/>
<path fill-rule="evenodd" clip-rule="evenodd" d="M8.80571 17.1797L9.09564 17.2225L9.20629 17.6086L9.32432 17.227L9.61495 17.1956L9.39797 16.917L9.46693 16.5115L9.21481 16.7209L8.9668 16.5016L9.02796 16.9097L8.80571 17.1797Z" fill="white"/>
<path fill-rule="evenodd" clip-rule="evenodd" d="M7.95049 16.1897L8.24041 16.2325L8.35107 16.6186L8.46909 16.237L8.75972 16.2056L8.54274 15.927L8.61171 15.5215L8.35958 15.7309L8.11158 15.5116L8.17273 15.9197L7.95049 16.1897Z" fill="white"/>
<path fill-rule="evenodd" clip-rule="evenodd" d="M8.80571 15.2897L9.09564 15.3325L9.20629 15.7186L9.32432 15.337L9.61495 15.3056L9.39797 15.027L9.46693 14.6215L9.21481 14.8308L8.9668 14.6116L9.02796 15.0197L8.80571 15.2897Z" fill="white"/>
<path fill-rule="evenodd" clip-rule="evenodd" d="M7.95049 14.2997L8.24041 14.3425L8.35107 14.7286L8.46909 14.347L8.75972 14.3156L8.54274 14.037L8.61171 13.6315L8.35958 13.8408L8.11158 13.6216L8.17273 14.0297L7.95049 14.2997Z" fill="white"/>
<path d="M0.00317383 0.00449525L25.0709 17.8794L25.0124 -0.0360045L0.00317383 0.00449525Z" fill="white"/>
<path d="M14.5435 0.0270039L14.5225 6.56451L24.96 6.55022L24.9747 0.041326L14.5435 0.0270039Z" fill="#00247D"/>
<path d="M24.9679 17.9194L16.4836 11.7726H24.9527L24.9679 17.9194Z" fill="#00247D"/>
<path d="M0.032959 0.0251871L9.3448 6.65729L10.6455 6.63707L10.616 0.00496678L0.032959 0.0251871Z" fill="#00247D"/>
<path d="M25.0231 1.827L24.9961 0.0685826L22.8166 -0.116861L14.2627 6.02141L14.3603 6.87778L18.1542 6.73623L25.0231 1.827Z" fill="white"/>
<path d="M25.0413 18.0002L16.2617 11.6108L18.9814 11.5299L24.9971 15.8974L25.0413 18.0002Z" fill="white"/>
<path d="M0.00341797 0.0854999L9.77908 6.957L10.7812 6.90472L10.7848 5.59999L3.11174 0.0451856L0.00341797 0.0854999Z" fill="white"/>
<path d="M-0.0114746 0.0647871L9.63063 6.86249L10.6454 6.85758L10.6159 6.15132L2.1014 0.0448153L-0.0114746 0.0647871Z" fill="#CF142B"/>
<path d="M15.7007 6.75809L17.5926 6.67721L24.9827 1.25831L24.9532 0.0855177L15.7007 6.75809Z" fill="#CF142B"/>
<path d="M24.9651 7.54559L10.5645 7.56581L15.3395 10.9116L24.9672 10.8854L24.9651 7.54559Z" fill="#CF142B"/>
<path d="M13.7967 0.0864003L13.8262 9.7641L11.3354 8.04132L11.3405 0.0490496L13.7967 0.0864003Z" fill="#CF142B"/>
<path d="M24.9672 17.955H0.032959V0.0449867H24.9672V17.955Z" stroke="black"/>
</g>
<defs>
<clipPath id="clip0_22_170">
<rect width="25" height="18" fill="white" transform="matrix(1 0 0 -1 0 18)"/>
</clipPath>
</defs>
</svg>
