<svg width="110" height="58" viewBox="0 0 110 58" fill="none" xmlns="http://www.w3.org/2000/svg">
<path d="M7.16782 49.2109V49.4544C6.93328 49.4868 6.75375 49.5558 6.62913 49.6613C6.51186 49.7587 6.43491 49.9169 6.39826 50.1361C6.36162 50.3552 6.34329 50.6636 6.34329 51.0612V54.2872C6.34329 54.8147 6.31031 55.2975 6.24435 55.7358C6.17839 56.174 6.06113 56.5514 5.89256 56.8679C5.702 57.2169 5.4235 57.4928 5.05704 57.6957C4.69059 57.8986 4.22519 58 3.66085 58C3.32372 58 2.97925 57.9554 2.62746 57.8661C2.27568 57.7849 1.96053 57.6267 1.68202 57.3913C1.44749 57.1722 1.26793 56.9247 1.14333 56.6488C1.01874 56.3728 0.934456 56.0482 0.890482 55.6749C0.846507 55.2935 0.82452 54.8431 0.82452 54.3237V50.5013C0.82452 50.201 0.802533 49.9819 0.758559 49.8439C0.721913 49.6978 0.644958 49.6004 0.527693 49.5517C0.410428 49.4949 0.23453 49.4625 0 49.4544V49.2109C0.183227 49.219 0.428751 49.2271 0.736572 49.2352C1.05172 49.2433 1.37787 49.2474 1.715 49.2474C2.05214 49.2474 2.37462 49.2433 2.68242 49.2352C2.99757 49.2271 3.25776 49.219 3.46297 49.2109V49.4544C3.21378 49.4625 3.02323 49.4949 2.8913 49.5517C2.76671 49.6004 2.68242 49.6978 2.63845 49.8439C2.59449 49.9819 2.5725 50.201 2.5725 50.5013V55.0906C2.5725 55.4964 2.59449 55.8575 2.63845 56.174C2.68975 56.4824 2.77037 56.7421 2.88031 56.9531C2.99757 57.156 3.15515 57.3102 3.35303 57.4157C3.55092 57.5212 3.79644 57.5739 4.08961 57.5739C4.60264 57.5739 5.00208 57.44 5.28791 57.1722C5.58107 56.9044 5.78629 56.5352 5.90358 56.0645C6.02814 55.5856 6.09044 55.0378 6.09044 54.4211V51.2073C6.09044 50.761 6.06479 50.4201 6.01349 50.1848C5.96218 49.9413 5.85958 49.7668 5.70567 49.6613C5.55908 49.5558 5.33188 49.4868 5.02406 49.4544V49.2109C5.16331 49.219 5.34654 49.2271 5.57374 49.2352C5.80094 49.2433 6.01349 49.2474 6.2114 49.2474C6.38727 49.2474 6.5595 49.2433 6.72807 49.2352C6.90397 49.2271 7.05055 49.219 7.16782 49.2109ZM5.03506 46.6667C5.25493 46.6667 5.44548 46.76 5.60672 46.9467C5.77529 47.1333 5.85958 47.3484 5.85958 47.5918C5.85958 47.8434 5.77529 48.0585 5.60672 48.237C5.44548 48.4156 5.25493 48.5048 5.03506 48.5048C4.80785 48.5048 4.60997 48.4156 4.4414 48.237C4.28016 48.0585 4.19954 47.8394 4.19954 47.5797C4.19954 47.3362 4.28016 47.1252 4.4414 46.9467C4.60997 46.76 4.80785 46.6667 5.03506 46.6667ZM2.39661 46.6667C2.61648 46.6667 2.81068 46.76 2.97925 46.9467C3.14782 47.1333 3.2321 47.3484 3.2321 47.5918C3.2321 47.8434 3.14782 48.0585 2.97925 48.237C2.81068 48.4156 2.61648 48.5048 2.39661 48.5048C2.1694 48.5048 1.97518 48.4156 1.81394 48.237C1.65271 48.0585 1.57209 47.8394 1.57209 47.5797C1.57209 47.3362 1.65271 47.1252 1.81394 46.9467C1.97518 46.76 2.1694 46.6667 2.39661 46.6667ZM16.9681 49.2109V49.4544C16.7336 49.4868 16.5577 49.5558 16.4404 49.6613C16.3232 49.7587 16.2425 49.9169 16.1986 50.1361C16.1619 50.3552 16.1436 50.6636 16.1436 51.0612V57.8539C16.0557 57.8458 15.964 57.8418 15.8688 57.8418C15.7808 57.8418 15.6855 57.8458 15.5829 57.8539L10.8117 51.1586V55.8332C10.8117 56.2795 10.8337 56.6244 10.8777 56.8679C10.9216 57.1032 11.0169 57.2737 11.1635 57.3792C11.3174 57.4766 11.5556 57.5455 11.8781 57.5861V57.8296C11.7388 57.8133 11.5556 57.8052 11.3284 57.8052C11.1012 57.7971 10.8887 57.7931 10.6908 57.7931C10.5222 57.7931 10.35 57.7971 10.1741 57.8052C9.99818 57.8052 9.8516 57.8133 9.73433 57.8296V57.5861C9.96886 57.5455 10.1448 57.4766 10.262 57.3792C10.3793 57.2818 10.4562 57.1235 10.4929 56.9044C10.5369 56.6772 10.5589 56.3688 10.5589 55.9792V50.5013C10.5589 50.201 10.5369 49.9819 10.4929 49.8439C10.4562 49.6978 10.3756 49.6004 10.251 49.5517C10.1338 49.4949 9.96153 49.4625 9.73433 49.4544V49.2109C9.8516 49.219 9.99818 49.2271 10.1741 49.2352C10.35 49.2433 10.5222 49.2474 10.6908 49.2474C10.8667 49.2474 11.0352 49.2433 11.1965 49.2352C11.3577 49.2271 11.5043 49.219 11.6362 49.2109L15.8908 55.0176V51.2073C15.8908 50.761 15.8688 50.4201 15.8248 50.1848C15.7808 49.9413 15.6819 49.7668 15.528 49.6613C15.3814 49.5558 15.1469 49.4868 14.8244 49.4544V49.2109C14.9636 49.219 15.1469 49.2271 15.3741 49.2352C15.6013 49.2433 15.8138 49.2474 16.0117 49.2474C16.1876 49.2474 16.3598 49.2433 16.5284 49.2352C16.7043 49.2271 16.8509 49.219 16.9681 49.2109ZM23.099 49.2109V49.4544C22.8498 49.4625 22.6593 49.4949 22.5273 49.5517C22.4028 49.6004 22.3185 49.6978 22.2745 49.8439C22.2305 49.9819 22.2085 50.201 22.2085 50.5013V56.6853C22.2085 56.9369 22.2232 57.1235 22.2525 57.2453C22.2892 57.367 22.3551 57.4482 22.4504 57.4887C22.553 57.5293 22.7032 57.5496 22.9011 57.5496H23.4398C23.689 57.5496 23.9235 57.4847 24.1434 57.3548C24.3633 57.225 24.5612 57.0424 24.7371 56.807C24.913 56.5636 25.0595 56.2755 25.1768 55.9427C25.2941 55.61 25.382 55.2407 25.4407 54.8349H25.6935C25.6715 55.1109 25.6605 55.468 25.6605 55.9062C25.6605 56.0929 25.6642 56.3647 25.6715 56.7218C25.6788 57.0789 25.7008 57.4481 25.7375 57.8296C25.3637 57.8133 24.9423 57.8052 24.4732 57.8052C24.0042 57.7971 23.5864 57.7931 23.2199 57.7931C23.0367 57.7931 22.8022 57.7931 22.5164 57.7931C22.2305 57.7931 21.9227 57.7971 21.5929 57.8052C21.2631 57.8052 20.9296 57.8093 20.5925 57.8174C20.2553 57.8174 19.9365 57.8215 19.636 57.8296V57.5861C19.8706 57.5699 20.0465 57.5374 20.1637 57.4887C20.281 57.44 20.3579 57.3427 20.3946 57.1966C20.4386 57.0505 20.4606 56.8314 20.4606 56.5392V50.5013C20.4606 50.201 20.4386 49.9819 20.3946 49.8439C20.3579 49.6978 20.2773 49.6004 20.1527 49.5517C20.0355 49.4949 19.8632 49.4625 19.636 49.4544V49.2109C19.8193 49.219 20.0648 49.2271 20.3726 49.2352C20.6877 49.2433 21.0212 49.2474 21.373 49.2474C21.6955 49.2474 22.0106 49.2433 22.3185 49.2352C22.6336 49.2271 22.8938 49.219 23.099 49.2109ZM35.2742 49.2109V49.4544C35.0397 49.4868 34.8601 49.5558 34.7355 49.6613C34.6183 49.7587 34.5413 49.9169 34.5047 50.1361C34.468 50.3552 34.4497 50.6636 34.4497 51.0612V54.2872C34.4497 54.8147 34.4167 55.2975 34.3508 55.7358C34.2848 56.174 34.1675 56.5514 33.999 56.8679C33.8084 57.2169 33.5299 57.4928 33.1634 57.6957C32.797 57.8986 32.3316 58 31.7673 58C31.4301 58 31.0857 57.9554 30.7339 57.8661C30.3821 57.7849 30.0668 57.6267 29.7883 57.3913C29.5538 57.1722 29.3742 56.9247 29.2496 56.6488C29.125 56.3728 29.0407 56.0482 28.9967 55.6749C28.9528 55.2935 28.9308 54.8431 28.9308 54.3237V50.5013C28.9308 50.201 28.9088 49.9819 28.8648 49.8439C28.8282 49.6978 28.7512 49.6004 28.634 49.5517C28.5167 49.4949 28.3408 49.4625 28.1063 49.4544V49.2109C28.2895 49.219 28.535 49.2271 28.8428 49.2352C29.158 49.2433 29.4841 49.2474 29.8213 49.2474C30.1585 49.2474 30.481 49.2433 30.7888 49.2352C31.104 49.2271 31.3642 49.219 31.5694 49.2109V49.4544C31.3202 49.4625 31.1296 49.4949 30.9977 49.5517C30.8731 49.6004 30.7888 49.6978 30.7449 49.8439C30.7009 49.9819 30.6789 50.201 30.6789 50.5013V55.0906C30.6789 55.4964 30.7009 55.8575 30.7449 56.174C30.7962 56.4824 30.8768 56.7421 30.9867 56.9531C31.104 57.156 31.2615 57.3102 31.4594 57.4157C31.6573 57.5212 31.9028 57.5739 32.196 57.5739C32.709 57.5739 33.1085 57.44 33.3943 57.1722C33.6875 56.9044 33.8927 56.5352 34.01 56.0645C34.1345 55.5856 34.1968 55.0378 34.1968 54.4211V51.2073C34.1968 50.761 34.1712 50.4201 34.1199 50.1848C34.0686 49.9413 33.966 49.7668 33.8121 49.6613C33.6655 49.5558 33.4383 49.4868 33.1305 49.4544V49.2109C33.2697 49.219 33.4529 49.2271 33.6801 49.2352C33.9073 49.2433 34.1199 49.2474 34.3178 49.2474C34.4937 49.2474 34.6659 49.2433 34.8345 49.2352C35.0104 49.2271 35.157 49.219 35.2742 49.2109ZM33.1415 46.6667C33.3613 46.6667 33.5519 46.76 33.7131 46.9467C33.8817 47.1333 33.966 47.3484 33.966 47.5918C33.966 47.8434 33.8817 48.0585 33.7131 48.237C33.5519 48.4156 33.3613 48.5048 33.1415 48.5048C32.9143 48.5048 32.7164 48.4156 32.5478 48.237C32.3866 48.0585 32.3059 47.8394 32.3059 47.5797C32.3059 47.3362 32.3866 47.1252 32.5478 46.9467C32.7164 46.76 32.9143 46.6667 33.1415 46.6667ZM30.503 46.6667C30.7229 46.6667 30.9171 46.76 31.0857 46.9467C31.2542 47.1333 31.3385 47.3484 31.3385 47.5918C31.3385 47.8434 31.2542 48.0585 31.0857 48.237C30.9171 48.4156 30.7229 48.5048 30.503 48.5048C30.2758 48.5048 30.0814 48.4156 29.9202 48.237C29.759 48.0585 29.6784 47.8394 29.6784 47.5797C29.6784 47.3362 29.759 47.1252 29.9202 46.9467C30.0814 46.76 30.2758 46.6667 30.503 46.6667ZM47.0355 57.8296V57.5861C47.2701 57.5699 47.446 57.5374 47.5632 57.4887C47.6805 57.44 47.7575 57.3427 47.7941 57.1966C47.8381 57.0505 47.8601 56.8314 47.8601 56.5392V50.5013C47.8601 50.201 47.8381 49.9819 47.7941 49.8439C47.7575 49.6978 47.6768 49.6004 47.5522 49.5517C47.435 49.4949 47.2627 49.4625 47.0355 49.4544V49.2109C47.2334 49.219 47.4899 49.2271 47.8051 49.2352C48.1276 49.2433 48.4464 49.2474 48.7615 49.2474C49.0987 49.2474 49.4138 49.2433 49.707 49.2352C50.0075 49.2271 50.2493 49.219 50.4326 49.2109V49.4544C50.198 49.4625 50.0185 49.4949 49.8939 49.5517C49.7766 49.6004 49.6997 49.6978 49.663 49.8439C49.6264 49.9819 49.608 50.201 49.608 50.5013V56.5392C49.608 56.8314 49.6264 57.0505 49.663 57.1966C49.707 57.3427 49.7876 57.44 49.9049 57.4887C50.0221 57.5374 50.198 57.5699 50.4326 57.5861V57.8296C50.2493 57.8133 50.0075 57.8052 49.707 57.8052C49.4138 57.7971 49.0987 57.7931 48.7615 57.7931C48.4464 57.7931 48.1276 57.7971 47.8051 57.8052C47.4899 57.8052 47.2334 57.8133 47.0355 57.8296ZM42.3742 57.8296V57.5861C42.6088 57.5699 42.7847 57.5374 42.9019 57.4887C43.0192 57.44 43.0962 57.3427 43.1328 57.1966C43.1768 57.0505 43.1988 56.8314 43.1988 56.5392V50.5013C43.1988 50.201 43.1768 49.9819 43.1328 49.8439C43.0962 49.6978 43.0155 49.6004 42.891 49.5517C42.7737 49.4949 42.6014 49.4625 42.3742 49.4544V49.2109C42.5648 49.219 42.8103 49.2271 43.1108 49.2352C43.4186 49.2433 43.7521 49.2474 44.1112 49.2474C44.4191 49.2474 44.7232 49.2433 45.0237 49.2352C45.3242 49.2271 45.5734 49.219 45.7713 49.2109V49.4544C45.5367 49.4625 45.3572 49.4949 45.2326 49.5517C45.1153 49.6004 45.0384 49.6978 45.0017 49.8439C44.9651 49.9819 44.9468 50.201 44.9468 50.5013V56.5392C44.9468 56.8314 44.9651 57.0505 45.0017 57.1966C45.0457 57.3427 45.1263 57.44 45.2436 57.4887C45.3609 57.5374 45.5367 57.5699 45.7713 57.5861V57.8296C45.5734 57.8133 45.3242 57.8052 45.0237 57.8052C44.7232 57.7971 44.4191 57.7931 44.1112 57.7931C43.7521 57.7931 43.4186 57.7971 43.1108 57.8052C42.8103 57.8052 42.5648 57.8133 42.3742 57.8296ZM44.2322 53.6176V53.3742H48.5746V53.6176H44.2322ZM56.8177 49.1865L59.4892 56.807C59.5918 57.0992 59.7054 57.3021 59.83 57.4157C59.9619 57.5212 60.0791 57.578 60.1818 57.5861V57.8296C59.9619 57.8133 59.7017 57.8052 59.4012 57.8052C59.108 57.7971 58.8112 57.7931 58.5107 57.7931C58.1736 57.7931 57.8548 57.7971 57.5543 57.8052C57.2538 57.8052 57.0156 57.8133 56.8397 57.8296V57.5861C57.2135 57.5699 57.448 57.5009 57.5433 57.3792C57.6459 57.2493 57.6239 56.9774 57.4773 56.5636L55.6084 50.903L55.8063 50.5865L54.1353 55.4071C53.974 55.8534 53.8751 56.2186 53.8384 56.5027C53.8091 56.7867 53.8274 57.0059 53.8934 57.16C53.9667 57.3142 54.0803 57.4238 54.2342 57.4887C54.3955 57.5455 54.586 57.578 54.8059 57.5861V57.8296C54.564 57.8133 54.3332 57.8052 54.1133 57.8052C53.8934 57.7971 53.6699 57.7931 53.4427 57.7931C53.2814 57.7931 53.1275 57.7971 52.9809 57.8052C52.8417 57.8052 52.7171 57.8133 52.6072 57.8296V57.5861C52.7611 57.5537 52.9186 57.4441 53.0799 57.2574C53.2411 57.0708 53.3987 56.7543 53.5526 56.3079L56.0592 49.1865C56.1764 49.1947 56.301 49.1987 56.4329 49.1987C56.5722 49.1987 56.7004 49.1947 56.8177 49.1865ZM57.5873 54.3237V54.5671H54.3112L54.4211 54.3237H57.5873ZM68.1243 49.2109C68.095 49.5761 68.073 49.9291 68.0584 50.27C68.051 50.6108 68.0474 50.8746 68.0474 51.0612C68.0474 51.2398 68.051 51.4102 68.0584 51.5725C68.0657 51.7348 68.073 51.8728 68.0804 51.9864H67.8275C67.7322 51.3534 67.6003 50.8583 67.4317 50.5013C67.2632 50.1361 67.0543 49.8764 66.8051 49.7222C66.5632 49.568 66.2737 49.4909 65.9366 49.4909H65.5738C65.3613 49.4909 65.2 49.5112 65.0901 49.5517C64.9802 49.5923 64.9069 49.6735 64.8702 49.7952C64.8336 49.9169 64.8153 50.1036 64.8153 50.3552V56.4662C64.8153 56.7827 64.8446 57.018 64.9032 57.1722C64.9618 57.3264 65.0754 57.4279 65.244 57.4766C65.4126 57.5252 65.6618 57.5536 65.9916 57.5618V57.8296C65.7644 57.8215 65.4712 57.8133 65.1121 57.8052C64.753 57.7971 64.3755 57.7931 63.9797 57.7931C63.6646 57.7931 63.3568 57.7971 63.0563 57.8052C62.7558 57.8133 62.4846 57.8215 62.2428 57.8296V57.5861C62.4773 57.5699 62.6532 57.5374 62.7704 57.4887C62.8877 57.44 62.9647 57.3427 63.0013 57.1966C63.0453 57.0505 63.0673 56.8314 63.0673 56.5392V50.5013C63.0673 50.201 63.0453 49.9819 63.0013 49.8439C62.9647 49.6978 62.884 49.6004 62.7594 49.5517C62.6422 49.4949 62.47 49.4625 62.2428 49.4544V49.2109C62.5432 49.219 62.8621 49.2271 63.1992 49.2352C63.5363 49.2352 63.8698 49.2393 64.1996 49.2474C64.5294 49.2474 64.8372 49.2474 65.1231 49.2474C65.4089 49.2474 65.6434 49.2474 65.8267 49.2474C66.1638 49.2474 66.5449 49.2474 66.97 49.2474C67.4024 49.2393 67.7872 49.2271 68.1243 49.2109ZM66.4863 53.4228C66.4863 53.4228 66.4863 53.4634 66.4863 53.5446C66.4863 53.6257 66.4863 53.6663 66.4863 53.6663H64.4854C64.4854 53.6663 64.4854 53.6257 64.4854 53.5446C64.4854 53.4634 64.4854 53.4228 64.4854 53.4228H66.4863ZM66.7611 51.816C66.7318 52.2786 66.7171 52.6316 66.7171 52.8751C66.7245 53.1185 66.7281 53.3417 66.7281 53.5446C66.7281 53.7475 66.7318 53.9706 66.7391 54.2141C66.7465 54.4576 66.7648 54.8106 66.7941 55.2732H66.5412C66.4973 54.9891 66.4276 54.7254 66.3324 54.4819C66.2371 54.2385 66.0978 54.0437 65.9146 53.8976C65.7314 53.7434 65.4932 53.6663 65.2 53.6663V53.4228C65.4199 53.4228 65.6031 53.3742 65.7497 53.2768C65.9036 53.1713 66.0319 53.0374 66.1345 52.8751C66.2371 52.7046 66.3177 52.5261 66.3763 52.3394C66.435 52.1528 66.4789 51.9783 66.5083 51.816H66.7611ZM70.7277 49.2109C70.9109 49.219 71.1564 49.2271 71.4642 49.2352C71.7794 49.2433 72.0909 49.2474 72.3987 49.2474C72.7505 49.2474 73.0913 49.2433 73.4211 49.2352C73.7509 49.2271 73.9854 49.2231 74.1247 49.2231C74.8063 49.2231 75.3706 49.3083 75.8177 49.4787C76.2721 49.641 76.6093 49.8804 76.8291 50.1969C77.0563 50.5134 77.1699 50.8949 77.1699 51.3412C77.1699 51.6171 77.1186 51.8971 77.016 52.1812C76.9134 52.4571 76.7375 52.7168 76.4883 52.9603C76.2465 53.1956 75.913 53.3863 75.4879 53.5324C75.0628 53.6704 74.5278 53.7394 73.8828 53.7394H72.8275V53.4959H73.7729C74.2053 53.4959 74.5315 53.4066 74.7513 53.2281C74.9785 53.0414 75.1324 52.7979 75.2131 52.4977C75.301 52.1893 75.345 51.8484 75.345 51.4751C75.345 50.834 75.2424 50.3389 75.0372 49.99C74.8319 49.6329 74.4802 49.4544 73.9818 49.4544C73.6959 49.4544 73.5091 49.5233 73.4211 49.6613C73.3405 49.7993 73.3002 50.0793 73.3002 50.5013V56.5392C73.3002 56.8314 73.3185 57.0505 73.3551 57.1966C73.3991 57.3427 73.4797 57.44 73.597 57.4887C73.7143 57.5374 73.8902 57.5699 74.1247 57.5861V57.8296C73.9268 57.8133 73.6776 57.8052 73.3771 57.8052C73.0766 57.7971 72.7725 57.7931 72.4647 57.7931C72.1129 57.7931 71.7794 57.7971 71.4642 57.8052C71.1564 57.8052 70.9109 57.8133 70.7277 57.8296V57.5861C70.9622 57.5699 71.1381 57.5374 71.2554 57.4887C71.3726 57.44 71.4496 57.3427 71.4862 57.1966C71.5302 57.0505 71.5522 56.8314 71.5522 56.5392V50.5013C71.5522 50.201 71.5302 49.9819 71.4862 49.8439C71.4496 49.6978 71.369 49.6004 71.2444 49.5517C71.1271 49.4949 70.9549 49.4625 70.7277 49.4544V49.2109ZM72.8055 53.5324C73.1206 53.5405 73.3918 53.5568 73.619 53.5811C73.8535 53.6054 74.0587 53.6298 74.2346 53.6541C74.4105 53.6704 74.5681 53.6825 74.7074 53.6907C75.3743 53.7556 75.8654 53.9138 76.1805 54.1654C76.503 54.417 76.7119 54.7944 76.8071 55.2975L77.06 56.5514C77.126 56.876 77.1956 57.1032 77.2689 57.2331C77.3422 57.3629 77.4484 57.4279 77.5877 57.4279C77.683 57.4197 77.7599 57.3954 77.8185 57.3548C77.8845 57.3061 77.9541 57.2371 78.0274 57.1479L78.1813 57.294C77.9835 57.5455 77.7709 57.7241 77.5437 57.8296C77.3165 57.9432 77.0417 58 76.7192 58C76.3234 58 75.9973 57.9067 75.7408 57.72C75.4842 57.5334 75.3157 57.1885 75.2351 56.6853L75.0372 55.468C74.9859 55.1271 74.9236 54.8309 74.8503 54.5793C74.777 54.3196 74.6744 54.1167 74.5425 53.9706C74.4179 53.8164 74.242 53.7394 74.0148 53.7394H72.8275L72.8055 53.5324ZM83.7151 49.2109V49.4544C83.4806 49.4625 83.301 49.4949 83.1764 49.5517C83.0591 49.6004 82.9822 49.6978 82.9455 49.8439C82.9089 49.9819 82.8906 50.201 82.8906 50.5013V56.5392C82.8906 56.8314 82.9089 57.0505 82.9455 57.1966C82.9895 57.3427 83.0701 57.44 83.1874 57.4887C83.3047 57.5374 83.4806 57.5699 83.7151 57.5861V57.8296C83.5172 57.8133 83.268 57.8052 82.9675 57.8052C82.667 57.7971 82.3629 57.7931 82.0551 57.7931C81.6959 57.7931 81.3625 57.7971 81.0546 57.8052C80.7542 57.8052 80.5086 57.8133 80.3181 57.8296V57.5861C80.5526 57.5699 80.7285 57.5374 80.8458 57.4887C80.963 57.44 81.04 57.3427 81.0766 57.1966C81.1206 57.0505 81.1426 56.8314 81.1426 56.5392V50.5013C81.1426 50.201 81.1206 49.9819 81.0766 49.8439C81.04 49.6978 80.9594 49.6004 80.8348 49.5517C80.7175 49.4949 80.5453 49.4625 80.3181 49.4544V49.2109C80.5086 49.219 80.7542 49.2271 81.0546 49.2352C81.3625 49.2433 81.6959 49.2474 82.0551 49.2474C82.3629 49.2474 82.667 49.2433 82.9675 49.2352C83.268 49.2271 83.5172 49.219 83.7151 49.2109ZM92.8395 49.1987V49.4422C92.6782 49.5152 92.5133 49.6613 92.3448 49.8804C92.1762 50.0914 91.9893 50.416 91.7841 50.8543L89.7063 55.4071H89.1896L86.6171 50.1361C86.4852 49.8601 86.3642 49.6775 86.2543 49.5883C86.1517 49.499 86.0601 49.4544 85.9795 49.4544V49.1987C86.1774 49.2231 86.3789 49.2393 86.5841 49.2474C86.7967 49.2555 87.0275 49.2596 87.2767 49.2596C87.5992 49.2596 87.9473 49.2555 88.3211 49.2474C88.6949 49.2312 89.0357 49.2149 89.3435 49.1987V49.4544C89.1603 49.4544 88.9954 49.4706 88.8488 49.503C88.7022 49.5355 88.5996 49.5964 88.541 49.6856C88.4824 49.7668 88.497 49.9007 88.585 50.0874L90.3219 53.788L89.9811 54.275L91.1135 51.7551C91.3847 51.1708 91.5276 50.7123 91.5422 50.3795C91.5642 50.0468 91.4909 49.8114 91.3224 49.6735C91.1611 49.5274 90.9303 49.4503 90.6298 49.4422V49.1987C90.879 49.2068 91.1135 49.2149 91.3334 49.2231C91.5532 49.2312 91.7768 49.2352 92.004 49.2352C92.1652 49.2352 92.3155 49.2312 92.4547 49.2231C92.6013 49.2149 92.7295 49.2068 92.8395 49.1987ZM90.4869 53.4837V56.5392C90.4869 56.8314 90.5052 57.0505 90.5418 57.1966C90.5858 57.3427 90.6664 57.44 90.7837 57.4887C90.9009 57.5374 91.0768 57.5699 91.3114 57.5861V57.8296C91.1135 57.8133 90.857 57.8052 90.5418 57.8052C90.234 57.7971 89.9262 57.7931 89.6184 57.7931C89.2739 57.7931 88.9477 57.7971 88.6399 57.8052C88.3321 57.8052 88.0902 57.8133 87.9143 57.8296V57.5861C88.1489 57.5699 88.3248 57.5374 88.442 57.4887C88.5593 57.44 88.6363 57.3427 88.6729 57.1966C88.7169 57.0505 88.7389 56.8314 88.7389 56.5392V54.0437L89.6953 54.7984L90.4869 53.4837ZM98.3186 49.1865L100.99 56.807C101.093 57.0992 101.206 57.3021 101.331 57.4157C101.463 57.5212 101.58 57.578 101.683 57.5861V57.8296C101.463 57.8133 101.203 57.8052 100.902 57.8052C100.609 57.7971 100.312 57.7931 100.012 57.7931C99.6745 57.7931 99.3556 57.7971 99.0551 57.8052C98.7546 57.8052 98.5164 57.8133 98.3406 57.8296V57.5861C98.7143 57.5699 98.9489 57.5009 99.0442 57.3792C99.1468 57.2493 99.1248 56.9774 98.9782 56.5636L97.1093 50.903L97.3072 50.5865L95.6361 55.4071C95.4749 55.8534 95.3759 56.2186 95.3393 56.5027C95.31 56.7867 95.3283 57.0059 95.3943 57.16C95.4676 57.3142 95.5812 57.4238 95.7351 57.4887C95.8963 57.5455 96.0869 57.578 96.3067 57.5861V57.8296C96.0649 57.8133 95.834 57.8052 95.6141 57.8052C95.3943 57.7971 95.1707 57.7931 94.9435 57.7931C94.7823 57.7931 94.6284 57.7971 94.4818 57.8052C94.3426 57.8052 94.218 57.8133 94.108 57.8296V57.5861C94.2619 57.5537 94.4195 57.4441 94.5807 57.2574C94.742 57.0708 94.8996 56.7543 95.0535 56.3079L97.56 49.1865C97.6773 49.1947 97.8019 49.1987 97.9338 49.1987C98.073 49.1987 98.2013 49.1947 98.3186 49.1865ZM99.0881 54.3237V54.5671H95.812L95.922 54.3237H99.0881ZM109.902 49.2109C109.872 49.6248 109.85 50.0224 109.836 50.4039C109.828 50.7853 109.825 51.0775 109.825 51.2803C109.825 51.4589 109.828 51.6293 109.836 51.7916C109.843 51.9539 109.85 52.0919 109.858 52.2055H109.605C109.487 51.5238 109.337 50.9841 109.154 50.5865C108.978 50.1888 108.766 49.9088 108.516 49.7465C108.267 49.5761 107.974 49.4909 107.637 49.4909H107.384V56.4418C107.384 56.7664 107.413 57.0099 107.472 57.1722C107.538 57.3345 107.655 57.4441 107.824 57.5009C107.992 57.5496 108.238 57.578 108.56 57.5861V57.8296C108.333 57.8215 108.029 57.8133 107.648 57.8052C107.274 57.7971 106.882 57.7931 106.472 57.7931C106.068 57.7931 105.687 57.7971 105.328 57.8052C104.969 57.8133 104.68 57.8215 104.46 57.8296V57.5861C104.79 57.578 105.039 57.5496 105.207 57.5009C105.376 57.4441 105.489 57.3345 105.548 57.1722C105.607 57.0099 105.636 56.7664 105.636 56.4418V49.4909H105.394C105.057 49.4909 104.764 49.5761 104.515 49.7465C104.266 49.9088 104.053 50.1888 103.877 50.5865C103.701 50.976 103.547 51.5157 103.415 52.2055H103.162C103.177 52.0919 103.184 51.9539 103.184 51.7916C103.192 51.6293 103.195 51.4589 103.195 51.2803C103.195 51.0775 103.188 50.7853 103.173 50.4039C103.166 50.0224 103.148 49.6248 103.118 49.2109C103.456 49.219 103.822 49.2271 104.218 49.2352C104.621 49.2433 105.024 49.2474 105.427 49.2474C105.83 49.2474 106.193 49.2474 106.516 49.2474C106.845 49.2474 107.208 49.2474 107.604 49.2474C108.007 49.2474 108.41 49.2433 108.813 49.2352C109.216 49.2271 109.579 49.219 109.902 49.2109Z" fill="black"/>
<path d="M81.7695 12.8753V13.5332C81.0893 13.6209 80.5686 13.8073 80.2072 14.0924C79.8671 14.3556 79.644 14.7832 79.5377 15.3754C79.4314 15.9675 79.3783 16.8008 79.3783 17.8754V26.5929C79.3783 28.0184 79.2826 29.3233 79.0913 30.5075C78.9 31.6918 78.5599 32.7115 78.0711 33.5668C77.5184 34.5098 76.7108 35.2555 75.648 35.8038C74.5852 36.352 73.2355 36.6262 71.5989 36.6262C70.6211 36.6262 69.6222 36.5055 68.6019 36.2643C67.5817 36.045 66.6677 35.6173 65.86 34.9814C65.1798 34.3892 64.6591 33.7203 64.2977 32.9747C63.9364 32.2291 63.692 31.3518 63.5644 30.343C63.4369 29.3123 63.3731 28.0951 63.3731 26.6916V16.3622C63.3731 15.5508 63.3094 14.9587 63.1818 14.5859C63.0756 14.1911 62.8524 13.9279 62.5123 13.7963C62.1722 13.6428 61.6621 13.5551 60.9819 13.5332V12.8753C61.5133 12.8972 62.2254 12.9191 63.1181 12.9411C64.0321 12.963 64.9779 12.9739 65.9556 12.9739C66.9334 12.9739 67.8686 12.963 68.7613 12.9411C69.6753 12.9191 70.4299 12.8972 71.025 12.8753V13.5332C70.3023 13.5551 69.7497 13.6428 69.3671 13.7963C69.0058 13.9279 68.7613 14.1911 68.6338 14.5859C68.5063 14.9587 68.4425 15.5508 68.4425 16.3622V28.764C68.4425 29.8606 68.5063 30.8365 68.6338 31.6918C68.7826 32.5251 69.0164 33.2269 69.3352 33.7971C69.6753 34.3454 70.1323 34.7621 70.7062 35.0472C71.2801 35.3322 71.9921 35.4748 72.8423 35.4748C74.3302 35.4748 75.4886 35.1129 76.3175 34.3892C77.1677 33.6655 77.7629 32.6677 78.103 31.3957C78.4643 30.1018 78.645 28.6215 78.645 26.9547V18.2702C78.645 17.064 78.5706 16.1429 78.4218 15.5069C78.273 14.849 77.9754 14.3775 77.5291 14.0924C77.104 13.8073 76.4451 13.6209 75.5523 13.5332V12.8753C75.9562 12.8972 76.4876 12.9191 77.1465 12.9411C77.8054 12.963 78.4218 12.9739 78.9957 12.9739C79.5058 12.9739 80.0053 12.963 80.4942 12.9411C81.0043 12.9191 81.4294 12.8972 81.7695 12.8753ZM75.5842 6C76.2219 6 76.7745 6.2522 77.2421 6.75661C77.731 7.26101 77.9754 7.84218 77.9754 8.5001C77.9754 9.17995 77.731 9.76111 77.2421 10.2436C76.7745 10.7261 76.2219 10.9673 75.5842 10.9673C74.9253 10.9673 74.3514 10.7261 73.8626 10.2436C73.3949 9.76111 73.1611 9.16898 73.1611 8.4672C73.1611 7.80928 73.3949 7.23908 73.8626 6.75661C74.3514 6.2522 74.9253 6 75.5842 6ZM67.9324 6C68.57 6 69.1333 6.2522 69.6222 6.75661C70.111 7.26101 70.3555 7.84218 70.3555 8.5001C70.3555 9.17995 70.111 9.76111 69.6222 10.2436C69.1333 10.7261 68.57 10.9673 67.9324 10.9673C67.2735 10.9673 66.7102 10.7261 66.2426 10.2436C65.775 9.76111 65.5412 9.16898 65.5412 8.4672C65.5412 7.80928 65.775 7.23908 66.2426 6.75661C66.7102 6.2522 67.2735 6 67.9324 6ZM100.148 36.1656V35.5077C100.828 35.4638 101.339 35.3761 101.679 35.2445C102.019 35.1129 102.242 34.8498 102.348 34.455C102.476 34.0603 102.539 33.4681 102.539 32.6786V16.3622C102.539 15.5508 102.476 14.9587 102.348 14.5859C102.242 14.1911 102.008 13.9279 101.647 13.7963C101.307 13.6428 100.807 13.5551 100.148 13.5332V12.8753C100.722 12.8972 101.466 12.9191 102.38 12.9411C103.315 12.963 104.24 12.9739 105.154 12.9739C106.132 12.9739 107.046 12.963 107.896 12.9411C108.767 12.9191 109.469 12.8972 110 12.8753V13.5332C109.32 13.5551 108.799 13.6428 108.438 13.7963C108.098 13.9279 107.874 14.1911 107.768 14.5859C107.662 14.9587 107.609 15.5508 107.609 16.3622V32.6786C107.609 33.4681 107.662 34.0603 107.768 34.455C107.896 34.8498 108.13 35.1129 108.47 35.2445C108.81 35.3761 109.32 35.4638 110 35.5077V36.1656C109.469 36.1218 108.767 36.0998 107.896 36.0998C107.046 36.0779 106.132 36.0669 105.154 36.0669C104.24 36.0669 103.315 36.0779 102.38 36.0998C101.466 36.0998 100.722 36.1218 100.148 36.1656ZM86.6299 36.1656V35.5077C87.3101 35.4638 87.8202 35.3761 88.1603 35.2445C88.5004 35.1129 88.7236 34.8498 88.8298 34.455C88.9574 34.0603 89.0211 33.4681 89.0211 32.6786V16.3622C89.0211 15.5508 88.9574 14.9587 88.8298 14.5859C88.7236 14.1911 88.4898 13.9279 88.1284 13.7963C87.7883 13.6428 87.2888 13.5551 86.6299 13.5332V12.8753C87.1826 12.8972 87.8946 12.9191 88.7661 12.9411C89.6588 12.963 90.6259 12.9739 91.6674 12.9739C92.5601 12.9739 93.4422 12.963 94.3137 12.9411C95.1851 12.9191 95.9078 12.8972 96.4817 12.8753V13.5332C95.8015 13.5551 95.2808 13.6428 94.9194 13.7963C94.5794 13.9279 94.3562 14.1911 94.2499 14.5859C94.1436 14.9587 94.0905 15.5508 94.0905 16.3622V32.6786C94.0905 33.4681 94.1436 34.0603 94.2499 34.455C94.3774 34.8498 94.6112 35.1129 94.9513 35.2445C95.2914 35.3761 95.8015 35.4638 96.4817 35.5077V36.1656C95.9078 36.1218 95.1851 36.0998 94.3137 36.0998C93.4422 36.0779 92.5601 36.0669 91.6674 36.0669C90.6259 36.0669 89.6588 36.0779 88.7661 36.0998C87.8946 36.0998 87.1826 36.1218 86.6299 36.1656ZM92.0181 24.7836V24.1257H104.612V24.7836H92.0181Z" fill="black"/>
<path d="M56.7068 0L56.7068 42.8333" stroke="black"/>
<path d="M49.6435 24.3333L47.9029 24.2859C47.9275 22.9526 47.0893 22.9784 47.0893 22.9784L44.5056 22.8795C43.9189 22.802 43.1841 22.9268 43.1841 22.9268L39.5749 23.3225C39.0569 23.3956 38.9535 23.8042 38.9387 24.0365L38.6329 24.0279L38.3274 20.3676C38.3274 20.3676 38.2237 20.0923 37.5878 20.174L32.0653 19.9891C32.0653 19.9891 31.8185 19.8815 31.5473 19.9891L29.575 16.7374C29.575 16.7374 27.6964 14.3846 25.4529 13.4857C25.4529 13.4857 23.7222 11.8727 22.6916 11.8211L20.9609 11.5544L19.9896 11.2362C19.9896 11.2362 19.4718 11.0512 19.1414 11.2362L18.6582 11.4727L11.8981 9.67481C11.8981 9.67481 11.2916 9.17158 10.6555 9.35652L10.3547 9.31352C10.3547 9.31352 10.2019 9.27482 10.1427 9.43395L3.92 7.71348C3.92 7.71348 3.52554 6.99948 2.91904 7.52852L1.85892 8.45329L0.192302 11.9157C0.192302 11.9157 0.0641006 12.3114 0.187371 12.3932L0 14.7717L0.103547 15.0126L0.793862 20.9611C0.793862 20.9611 0.493081 21.516 0.917134 21.8343L1.00589 22.0967L1.18833 22.1741L1.48911 25.3398L1.1834 25.3828C1.1834 25.3828 0.931926 25.7785 1.18833 26.2816H1.60745L2.67745 28.0023L2.66758 29.0172C2.66758 29.0172 2.13505 29.3441 2.50486 29.6193V29.826C2.50486 29.826 1.6962 30.2174 2.69716 30.6129L2.44569 30.7463L2.63799 31.3271C2.63799 31.3271 1.79482 33.4432 4.49199 34.2089L6.16352 34.5787C6.16352 34.5787 9.22557 35.0002 11.5628 33.9981C11.5628 33.9981 12.5933 33.8904 13.0815 33.628L11.6269 32.2646L7.5343 29.1806H6.94261L6.95739 28.4795L6.1093 27.7743L6.02052 27.4991C6.02052 27.4991 6.80947 27.0989 6.20297 26.5957L5.99095 16.7546C5.99095 16.7546 7.2335 15.6707 5.96137 13.8427L5.83808 13.7093V13.305L7.83014 13.9244L8.00272 13.7911L13.2491 14.9309L19.6838 16.4105C19.6838 16.4105 22.4451 17.1503 24.8119 18.8191L25.729 20.5697L25.5268 20.6342L25.6551 20.9482L25.517 20.9956L25.9706 22.0321L26.1876 21.959L27.6374 25.4344L27.8789 25.4602L28.1204 26.1742L27.504 26.2171L26.9665 27.3012L27.011 27.7139H26.1925V27.9892L26.7152 28.0236L26.7941 28.3937L27.0456 28.5528L28.6875 28.5785L29.5848 28.5612C29.5602 28.6173 29.511 28.6818 29.511 28.7463V29.3484L29.4073 29.37C28.5296 29.5548 27.0554 29.6237 27.0554 29.6237C26.4095 29.3572 24.5506 29.7226 24.5506 29.7226C23.9293 29.8388 22.4648 29.7571 22.4648 29.7571C21.0152 29.5892 20.3988 30.0925 20.3988 30.0925C19.7036 30.3808 19.4718 31.1721 19.4718 31.1721C19.2006 33.654 21.4639 33.8046 21.4639 33.8046C21.7351 33.9637 23.6186 33.9681 24.4372 33.9593C24.8218 34.1528 25.2655 34.2906 25.7438 34.3463C26.2122 34.6347 34.2346 34.0755 34.2346 34.0755C34.9695 34.1099 41.3795 33.8647 41.3795 33.8647C42.7354 33.8002 45.0431 33.7442 46.1327 33.7185C46.2216 33.7313 46.3055 33.7401 46.3991 33.7401C47.4395 33.7401 48.2825 32.8195 48.2825 31.6797C48.2825 30.8753 47.8585 30.1786 47.2472 29.8388C47.1535 29.7527 46.9612 29.6926 46.7147 29.6497C46.6948 29.6453 46.6753 29.6409 46.6554 29.6409C45.6841 29.4903 43.9779 29.6021 43.9779 29.6021C43.1841 29.6365 39.4318 29.2366 39.4318 29.2366C39.1212 29.1721 38.4901 29.1333 37.701 29.1205V28.772C37.701 28.7247 37.7801 28.772 37.7801 28.772H49.6879C50.0477 28.772 50.2599 28.4109 50.2599 28.0668V24.9526C50.245 24.6086 49.9985 24.3333 49.6435 24.3333ZM2.18928 25.4129L2.05122 25.2408L1.72086 22.088L1.84413 22.0579L1.87371 21.6751C2.20408 21.2966 1.72086 20.8407 1.72086 20.8407L1.13409 15.7008H1.26229L4.11723 24.8021L2.5591 25.4129H2.18928ZM3.76221 27.5075L2.61333 26.0108H2.66758V25.7613L3.99397 25.4086C3.90522 25.6752 4.32925 25.6752 4.32925 25.6752L4.62018 26.8064L3.76221 27.5075ZM5.29078 10.7028L4.704 9.65762L4.50183 9.52429L4.11723 8.27693L9.95534 9.87697C9.95534 9.87697 10.1871 10.1222 10.3399 10.1436C10.3399 10.1436 10.6456 10.5652 11.5135 10.5221L16.0794 11.7222L10.8034 11.1888C10.8034 11.1888 8.30351 10.4792 7.61812 10.5867C7.61812 10.5867 7.53922 10.2512 7.15954 10.4103C7.1497 10.4103 5.92685 10.1006 5.29078 10.7028ZM16.5774 12.3459H15.749L9.92574 11.5587C9.92574 11.5587 8.73249 11.0383 6.77987 10.9953V10.8749L7.40116 10.763C7.40116 10.763 9.94053 11.0555 10.3005 11.3007C10.3005 11.3007 12.6278 11.748 15.9956 11.9931C15.9956 11.9931 16.104 12.3372 16.4098 12.1609C16.7155 11.9846 16.5774 12.3459 16.5774 12.3459ZM17.2776 12.4362V12.3459H17.7855L18.6138 12.6168L17.2776 12.4362ZM21.1483 12.3028C20.9461 12.0362 20.384 11.9673 20.384 11.9673L19.0083 11.5889C19.5162 11.1458 19.8761 11.477 19.8761 11.477L20.6158 11.8125C20.9461 11.9673 21.9175 11.9889 21.9175 11.9889C23.6088 12.0577 24.161 12.991 24.161 12.991C23.7764 12.8792 22.3267 12.7674 22.3267 12.7674L21.1483 12.3028ZM23.6975 13.3265C23.6186 13.0814 23.9786 13.1932 23.9786 13.1932L24.6689 13.4383L25.2951 13.9717C24.9006 13.6835 23.6975 13.3265 23.6975 13.3265ZM28.6677 24.9999H28.441L26.9813 21.731L27.1244 21.6665L26.6708 20.6213L26.5475 20.6557L26.4243 20.3547L26.1333 20.445L25.6501 19.4815L27.0604 20.7332L27.0308 20.9052L27.4498 21.6235L27.504 21.6708L28.6629 24.1741V24.9999H28.6677ZM35.211 23.4558C35.211 23.7612 34.9547 24.0322 34.6044 24.0322H32.4398C32.0899 24.0322 31.8087 23.7741 31.8087 23.4687L32.1785 21.6794C32.1785 21.374 32.4597 21.1332 32.8096 21.1332H34.6044C34.9547 21.1332 35.211 21.3568 35.211 21.6622V23.4558ZM37.479 23.4773C37.479 23.7827 37.1981 23.9376 36.8481 23.9376H36.7444C36.3945 23.9376 36.1133 23.7827 36.1133 23.4773V21.6837C36.1133 21.3784 36.3945 21.2235 36.7444 21.2235H36.8481C37.1981 21.2235 37.479 21.3784 37.479 21.6837V23.4773Z" fill="black"/>
</svg>
