<svg width="76" height="48" viewBox="0 0 76 48" fill="none" xmlns="http://www.w3.org/2000/svg">
<path d="M32.1262 10.6685V11.6894C31.075 11.8255 30.2703 12.1148 29.7118 12.5572C29.1862 12.9656 28.8413 13.6291 28.6771 14.548C28.5128 15.4668 28.4307 16.7599 28.4307 18.4274V31.9545C28.4307 34.1664 28.2829 36.1913 27.9872 38.0289C27.6916 39.8665 27.166 41.4489 26.4105 42.7761C25.5564 44.2394 24.3082 45.3964 22.6657 46.2472C21.0233 47.098 18.9374 47.5233 16.408 47.5233C14.897 47.5233 13.3531 47.3362 11.7763 46.9619C10.1996 46.6215 8.78708 45.958 7.53882 44.9711C6.48766 44.0523 5.68286 43.0143 5.12443 41.8573C4.566 40.7003 4.18823 39.3391 3.99114 37.7737C3.79405 36.1742 3.69551 34.2856 3.69551 32.1076V16.0793C3.69551 14.8202 3.59696 13.9014 3.39986 13.3229C3.23562 12.7103 2.8907 12.302 2.36512 12.0978C1.83954 11.8596 1.05116 11.7234 0 11.6894V10.6685C0.821222 10.7025 1.92166 10.7366 3.30132 10.7706C4.71382 10.8046 6.1756 10.8216 7.68665 10.8216C9.19769 10.8216 10.643 10.8046 12.0227 10.7706C13.4352 10.7366 14.6013 10.7025 15.5211 10.6685V11.6894C14.4042 11.7234 13.5502 11.8596 12.9589 12.0978C12.4005 12.302 12.0227 12.7103 11.8256 13.3229C11.6285 13.9014 11.53 14.8202 11.53 16.0793V35.3235C11.53 37.025 11.6285 38.5393 11.8256 39.8665C12.0555 41.1597 12.4169 42.2486 12.9096 43.1334C13.4352 43.9842 14.1415 44.6308 15.0284 45.0732C15.9153 45.5156 17.0157 45.7368 18.3297 45.7368C20.6291 45.7368 22.4194 45.1753 23.7005 44.0523C25.0144 42.9293 25.9342 41.3809 26.4598 39.4071C27.0182 37.3993 27.2974 35.1023 27.2974 32.516V19.04C27.2974 17.1683 27.1825 15.739 26.9525 14.7521C26.7226 13.7312 26.2627 12.9996 25.5729 12.5572C24.9159 12.1148 23.8976 11.8255 22.5179 11.6894V10.6685C23.142 10.7025 23.9633 10.7366 24.9816 10.7706C25.9999 10.8046 26.9525 10.8216 27.8394 10.8216C28.6278 10.8216 29.3997 10.8046 30.1553 10.7706C30.9436 10.7366 31.6006 10.7025 32.1262 10.6685ZM22.5672 0C23.5526 0 24.4067 0.391349 25.1294 1.17405C25.8849 1.95674 26.2627 2.85855 26.2627 3.87946C26.2627 4.9344 25.8849 5.8362 25.1294 6.58487C24.4067 7.33354 23.5526 7.70787 22.5672 7.70787C21.5489 7.70787 20.662 7.33354 19.9064 6.58487C19.1838 5.8362 18.8224 4.91738 18.8224 3.82841C18.8224 2.8075 19.1838 1.92271 19.9064 1.17405C20.662 0.391349 21.5489 0 22.5672 0ZM10.7416 0C11.7271 0 12.5975 0.391349 13.3531 1.17405C14.1086 1.95674 14.4864 2.85855 14.4864 3.87946C14.4864 4.9344 14.1086 5.8362 13.3531 6.58487C12.5975 7.33354 11.7271 7.70787 10.7416 7.70787C9.72327 7.70787 8.85278 7.33354 8.1301 6.58487C7.40743 5.8362 7.04609 4.91738 7.04609 3.82841C7.04609 2.8075 7.40743 1.92271 8.1301 1.17405C8.85278 0.391349 9.72327 0 10.7416 0ZM60.5297 46.8087V45.7878C61.5809 45.7197 62.3693 45.5836 62.8948 45.3794C63.4204 45.1752 63.7653 44.7669 63.9296 44.1543C64.1267 43.5418 64.2252 42.623 64.2252 41.3979V16.0793C64.2252 14.8202 64.1267 13.9014 63.9296 13.3229C63.7653 12.7103 63.404 12.302 62.8456 12.0978C62.32 11.8596 61.548 11.7234 60.5297 11.6894V10.6685C61.4166 10.7025 62.5664 10.7366 63.9789 10.7706C65.4242 10.8046 66.8531 10.8216 68.2656 10.8216C69.7767 10.8216 71.1892 10.8046 72.5031 10.7706C73.8499 10.7366 74.934 10.7025 75.7552 10.6685V11.6894C74.704 11.7234 73.8992 11.8596 73.3408 12.0978C72.8152 12.302 72.4703 12.7103 72.306 13.3229C72.1418 13.9014 72.0597 14.8202 72.0597 16.0793V41.3979C72.0597 42.623 72.1418 43.5418 72.306 44.1543C72.5031 44.7669 72.8645 45.1752 73.3901 45.3794C73.9156 45.5836 74.704 45.7197 75.7552 45.7878V46.8087C74.934 46.7406 73.8499 46.7066 72.5031 46.7066C71.1892 46.6726 69.7767 46.6556 68.2656 46.6556C66.8531 46.6556 65.4242 46.6726 63.9789 46.7066C62.5664 46.7066 61.4166 46.7406 60.5297 46.8087ZM39.6378 46.8087V45.7878C40.689 45.7197 41.4774 45.5836 42.0029 45.3794C42.5285 45.1752 42.8734 44.7669 43.0377 44.1543C43.2348 43.5418 43.3333 42.623 43.3333 41.3979V16.0793C43.3333 14.8202 43.2348 13.9014 43.0377 13.3229C42.8734 12.7103 42.5121 12.302 41.9537 12.0978C41.4281 11.8596 40.6561 11.7234 39.6378 11.6894V10.6685C40.4919 10.7025 41.5923 10.7366 42.9391 10.7706C44.3188 10.8046 45.8134 10.8216 47.423 10.8216C48.8027 10.8216 50.1659 10.8046 51.5127 10.7706C52.8595 10.7366 53.9764 10.7025 54.8633 10.6685V11.6894C53.8121 11.7234 53.0073 11.8596 52.4489 12.0978C51.9233 12.302 51.5784 12.7103 51.4141 13.3229C51.2499 13.9014 51.1678 14.8202 51.1678 16.0793V41.3979C51.1678 42.623 51.2499 43.5418 51.4141 44.1543C51.6112 44.7669 51.9726 45.1752 52.4982 45.3794C53.0237 45.5836 53.8121 45.7197 54.8633 45.7878V46.8087C53.9764 46.7406 52.8595 46.7066 51.5127 46.7066C50.1659 46.6726 48.8027 46.6556 47.423 46.6556C45.8134 46.6556 44.3188 46.6726 42.9391 46.7066C41.5923 46.7066 40.4919 46.7406 39.6378 46.8087ZM47.965 29.147V28.1261H67.428V29.147H47.965Z" fill="#FFEE00"/>
</svg>
