<svg width="25" height="18" viewBox="0 0 25 18" fill="none" xmlns="http://www.w3.org/2000/svg">
<path d="M24.9231 15.2308C24.9231 16.7601 23.6832 18 22.1538 18H2.76923C1.23992 18 0 16.7601 0 15.2308V2.76923C0 1.23992 1.23992 0 2.76923 0H22.1538C23.6832 0 24.9231 1.23992 24.9231 2.76923V15.2308Z" fill="#E30917"/>
<path d="M11.077 13.1538C8.78265 13.1538 6.92311 11.295 6.92311 9C6.92311 6.70569 8.78265 4.84616 11.077 4.84616C11.9839 4.84616 12.8216 5.14039 13.5049 5.634C12.5717 4.57892 11.212 3.90946 9.69235 3.90946C6.88088 3.90946 4.60181 6.18854 4.60181 9C4.60181 11.8122 6.88088 14.0912 9.69235 14.0912C11.212 14.0912 12.5723 13.4218 13.5049 12.366C12.8223 12.8596 11.9853 13.1538 11.077 13.1538ZM13.786 9.15923L15.4752 9.54831L15.6275 11.2742L16.5192 9.78854L18.2084 10.1769L17.0703 8.86985L17.9613 7.38346L16.3669 8.06193L15.2287 6.75416L15.381 8.48077L13.786 9.15923Z" fill="#EEEEEE"/>
</svg>
